<?xml version="1.0" standalone="no"?>
<!DOCTYPE svg PUBLIC "-//W3C//DTD SVG 20010904//EN"
 "http://www.w3.org/TR/2001/REC-SVG-20010904/DTD/svg10.dtd">
<svg version="1.0" xmlns="http://www.w3.org/2000/svg"
 width="1224.000000pt" height="857.000000pt" viewBox="0 0 1224.000000 857.000000"
 preserveAspectRatio="xMidYMid meet">
<metadata>
Created by potrace 1.16, written by Peter Selinger 2001-2019
</metadata>
<g transform="translate(0.000000,857.000000) scale(0.100000,-0.100000)"
fill="#000000" stroke="none">
<path d="M1567 8550 c-52 -41 -44 -136 14 -165 24 -13 622 -15 4604 -15 l4577
0 29 29 c40 40 41 106 3 145 l-27 26 -4587 0 -4587 0 -26 -20z"/>
<path d="M2219 7071 c-966 -472 -1784 -877 -1817 -900 -180 -122 -315 -304
-373 -503 -33 -114 -38 -334 -10 -452 50 -209 173 -387 348 -503 28 -19 851
-433 1829 -919 l1776 -884 2114 0 2114 0 1623 796 c2048 1005 1926 944 2023
1020 195 151 325 336 375 533 23 90 25 255 5 352 -45 211 -198 428 -378 536
-29 18 -864 426 -1854 908 l-1801 875 -2109 -1 -2109 0 -1756 -858z m3386 591
c-6 -5 -158 -89 -340 -187 -1733 -934 -2498 -1463 -2729 -1885 -93 -171 -85
-319 25 -484 270 -404 1234 -829 2149 -947 172 -22 428 -26 550 -9 548 76
1138 383 1736 901 371 322 458 451 458 679 -1 114 -20 195 -74 308 -58 122
-132 223 -250 344 -89 91 -102 108 -85 112 48 13 278 5 387 -14 443 -76 1139
-346 1677 -651 288 -162 349 -308 229 -541 -61 -118 -134 -185 -328 -302 -360
-216 -1240 -739 -2085 -1241 -489 -290 -907 -540 -927 -556 l-37 -29 -953 0
-953 0 -1270 632 c-2116 1052 -2248 1118 -2298 1155 -101 74 -188 207 -218
333 -16 69 -16 208 0 280 33 143 140 299 266 386 32 21 832 418 1778 881
l1722 841 790 1 c434 1 785 -3 780 -7z m4308 -858 c980 -477 1803 -881 1828
-900 219 -160 302 -439 198 -663 -57 -123 -173 -258 -293 -340 -25 -17 -829
-416 -1787 -886 l-1742 -855 -829 2 -828 3 217 129 c487 288 1986 1180 2291
1363 180 107 353 216 386 242 121 95 243 282 282 431 26 101 22 239 -9 328
-71 204 -201 311 -662 543 -521 261 -1062 457 -1485 536 -140 26 -447 23 -635
-5 -226 -35 -494 -133 -855 -313 -720 -359 -1190 -767 -1302 -1129 -88 -285
66 -646 367 -861 l48 -34 -34 -3 c-19 -2 -97 1 -174 8 -540 45 -1224 249
-1669 497 -285 159 -477 335 -493 451 -16 123 191 358 564 639 430 325 997
666 2118 1273 451 244 627 343 685 384 l35 25 998 1 997 0 1783 -866z m-3157
-440 c285 -215 461 -480 440 -663 -11 -90 -56 -159 -180 -278 -453 -432 -944
-757 -1388 -917 l-95 -34 -81 33 c-147 60 -281 151 -376 256 -101 112 -169
290 -152 402 16 107 138 292 282 427 264 247 698 518 1129 705 146 64 306 124
328 125 10 0 52 -25 93 -56z"/>
<path d="M1520 2250 l0 -80 4650 0 4650 0 0 80 0 80 -4650 0 -4650 0 0 -80z"/>
<path d="M4119 1639 c-324 -27 -511 -148 -548 -355 -21 -117 15 -229 98 -307
93 -87 221 -134 551 -202 251 -52 332 -75 413 -118 230 -121 198 -380 -58
-476 -87 -33 -174 -45 -325 -45 -165 -1 -266 17 -367 65 -71 34 -150 106 -176
162 -27 55 -56 71 -123 64 -63 -6 -104 -29 -104 -56 0 -10 14 -45 30 -79 61
-120 195 -213 380 -264 79 -21 104 -23 345 -23 237 0 268 2 348 22 195 50 326
141 383 266 25 54 28 74 28 157 0 82 -3 103 -26 152 -34 74 -96 134 -183 180
-97 50 -194 79 -455 133 -268 56 -385 92 -455 139 -131 90 -135 244 -10 354
60 53 140 79 282 93 256 26 481 -40 553 -162 47 -79 73 -99 127 -98 123 3 144
30 98 124 -77 159 -248 249 -520 275 -113 11 -149 11 -286 -1z"/>
<path d="M5739 1636 c-259 -55 -447 -189 -548 -393 -65 -129 -100 -347 -82
-506 15 -133 34 -198 93 -317 45 -91 63 -117 143 -196 80 -80 104 -98 195
-142 154 -74 211 -85 421 -80 158 4 181 7 254 32 91 31 185 84 264 148 67 54
161 173 161 203 0 32 -45 65 -87 65 -30 0 -48 -13 -141 -103 -161 -154 -283
-207 -477 -207 -177 0 -321 56 -435 170 -257 256 -260 775 -6 1025 110 108
247 159 431 159 191 0 317 -48 444 -169 89 -85 107 -95 159 -95 73 0 93 57 44
126 -84 116 -240 218 -402 264 -97 28 -332 36 -431 16z"/>
<path d="M8802 1638 c-9 -9 -12 -202 -12 -809 0 -439 3 -804 6 -813 5 -13 23
-16 95 -16 l89 0 0 688 0 687 63 -130 c126 -257 409 -790 429 -807 26 -23 70
-23 96 0 19 16 390 720 456 865 l31 67 0 -682 0 -683 89 -3 c65 -2 92 1 98 10
4 7 8 373 8 814 0 609 -3 803 -12 812 -19 19 -222 16 -238 -3 -21 -26 -430
-808 -453 -867 -21 -55 -37 -74 -37 -44 0 7 -25 64 -55 125 -88 179 -396 764
-413 784 -13 14 -33 17 -122 17 -69 0 -110 -4 -118 -12z"/>
<path d="M2262 1628 c-9 -9 -12 -130 -12 -490 l0 -478 -59 0 c-35 0 -63 -5
-69 -12 -5 -7 -13 -36 -17 -65 -6 -45 -4 -53 14 -62 11 -6 45 -11 75 -11 l56
0 0 -239 c0 -132 3 -246 6 -255 6 -14 69 -16 619 -16 681 0 625 -6 625 69 0
75 35 71 -535 73 l-510 3 0 180 0 180 448 5 c498 6 467 0 467 76 0 78 29 74
-470 76 l-445 3 -3 404 c-1 275 1 408 8 415 7 7 173 13 493 16 l482 5 0 65 0
65 -580 3 c-444 2 -584 -1 -593 -10z"/>
<path d="M7327 1625 c-404 -76 -638 -318 -677 -698 -19 -184 9 -349 84 -502
95 -194 273 -330 517 -397 77 -21 104 -23 324 -23 219 0 248 2 325 23 136 36
276 111 366 195 174 163 246 338 246 602 0 411 -208 677 -614 785 -70 19 -115
23 -288 26 -151 2 -226 -1 -283 -11z m462 -150 c185 -39 339 -144 419 -288 69
-121 100 -295 82 -453 -43 -385 -291 -593 -708 -594 -310 0 -535 122 -650 355
-42 84 -61 164 -68 280 -28 459 265 740 752 720 55 -3 133 -11 173 -20z"/>
</g>
</svg>
